<?xml version="1.0" encoding="utf-8"?>
<!-- Generator: Adobe Illustrator 22.0.1, SVG Export Plug-In . SVG Version: 6.00 Build 0)  -->
<svg version="1.1" id="Ebene_1" xmlns="http://www.w3.org/2000/svg" xmlns:xlink="http://www.w3.org/1999/xlink" x="0px" y="0px"
	 viewBox="0 0 1200 1200" style="enable-background:new 0 0 1200 1200;" xml:space="preserve">
<style type="text/css">
	.st0{fill:#000000;fill-opacity:0;}
	.st1{fill:#000000;}
</style>
<g>
	<g>
		<path class="st0" d="M0,1200C0,799.9,0,400.1,0,0c400.1,0,799.9,0,1200,0c0,400.1,0,799.9,0,1200C800.1,1200,400.1,1200,0,1200z
			 M171.5,466.6c-6.2,0-13.1-0.2-19.9,0c-22.5,0.4-33.9,11.8-33.9,34.3c0,74.7,0,149.2,0,223.9c0,22.3,11.6,33.9,34.1,34.1
			c7.1,0.2,14.3,0,21.4,0c0.9,9.2,1.5,17,2.7,24.7c1.3,8,2.9,16.1,5.4,23.7c21.2,63.1,76.7,102.4,144.8,102.4
			c136.5,0.2,273,0,409.7,0c3.4,0,7.1,0,11.2,0c0,28.1,0,54.9,0,81.8c0,7.4,0,14.7,8.2,18.3c8,3.4,13.1-1.3,18.5-6
			c33.9-29.5,67.8-59.1,102.1-88.3c3.8-3.3,9.2-5.6,14.3-6.2c69.4-6.5,123.6-55.6,135.4-123.4c1.5-8.9,2-17.8,3.1-27.2
			c7.3,0,13.8,0,20.5,0c23.4-0.2,35-12,35-35.3c0-74,0-148.1,0-222.1c0-22.8-11.6-34.6-34.4-34.8c-7.1-0.2-14.1,0-19.6,0
			c-3.6-17.8-5.1-34.3-10.3-49.5c-21-62.5-76.3-101.3-143.6-101.5c-79.2-0.2-158.2,0-237.5,0c-3.6,0-7.1,0-11.6,0
			c0-16.3-0.4-31.5,0.2-46.9c0.2-4,2.2-8.7,5.1-11.4c20.5-19.4,21.9-49.8,2.9-69.6c-18.7-19.4-50.6-19.4-69.1-0.2
			c-19.4,20.1-17.6,51.1,3.6,70.2c2,1.6,4.5,4,4.5,6.2c0.4,17,0.2,34.1,0.2,51.7c-4.9,0-8.5,0-12.1,0c-78.9,0-157.7-0.2-236.6,0
			c-67.8,0.2-123.3,39.2-144.3,101.9C176.6,432.7,174.9,449.2,171.5,466.6z"/>
		<path class="st1" d="M171.5,466.6c3.4-17.4,5.1-33.9,10.2-49.1c20.8-62.9,76.5-101.9,144.3-101.9c78.9-0.2,157.7,0,236.6,0
			c3.6,0,7.3,0,12.1,0c0-17.6,0.2-34.6-0.2-51.7c0-2.2-2.7-4.5-4.5-6.2c-21.2-19-23-50-3.6-70.2c18.5-19.2,50.4-19.2,69.1,0.2
			c19.2,19.8,17.8,50.4-2.9,69.6c-2.9,2.7-4.9,7.4-5.1,11.4c-0.5,15.2-0.2,30.6-0.2,46.9c4.5,0,8,0,11.6,0c79.2,0,158.2-0.2,237.5,0
			c67.3,0.2,122.5,39,143.6,101.5c5.1,15.2,6.7,31.7,10.3,49.5c5.4,0,12.5,0,19.6,0c22.8,0.4,34.4,12,34.4,34.8
			c0,74,0,148.1,0,222.1c0,23.4-11.6,35.2-35,35.3c-6.5,0-13.2,0-20.5,0c-1.1,9.4-1.6,18.3-3.1,27.2
			c-11.8,67.8-66.2,116.9-135.4,123.4c-4.9,0.5-10.5,2.9-14.3,6.2c-34.3,29.2-68.2,58.7-102.1,88.3c-5.3,4.7-10.5,9.4-18.5,6
			c-8.3-3.6-8.3-10.9-8.2-18.3c0.2-26.8,0-53.7,0-81.8c-4.2,0-7.6,0-11.2,0c-136.5,0-273,0-409.7,0c-68.2,0-123.6-39.3-144.8-102.4
			c-2.5-7.6-4.2-15.8-5.4-23.7c-1.3-7.6-1.6-15.4-2.7-24.7c-7.1,0-14.1,0-21.4,0c-22.5-0.4-34.1-11.8-34.1-34.1
			c0-74.7,0-149.2,0-223.9c0-22.5,11.4-33.9,33.9-34.3C158.4,466.6,165.3,466.6,171.5,466.6z M410.8,671.2c49.8,0,91.2-41.5,91.2-91
			c-0.2-49.1-41.5-90.6-90.6-90.8c-49.7-0.2-91.4,41.1-91.5,90.8C319.6,629.7,361.1,671.2,410.8,671.2z M790.3,671.2
			c50,0,91-41,91-91c0-49.5-41-90.6-90.3-90.8c-49.8-0.2-91.2,41-91.4,90.6C699.5,630.1,740.3,671.1,790.3,671.2z"/>
		<path class="st0" d="M410.8,671.2c-49.8,0-91.2-41.5-91-91.2c0.2-49.5,41.9-91,91.5-90.8c49.1,0.2,90.5,41.7,90.6,90.8
			C502.1,629.7,460.6,671.2,410.8,671.2z"/>
		<path class="st0" d="M790.3,671.2c-50,0-90.8-41.1-90.6-91.2c0.2-49.7,41.7-90.8,91.4-90.6c49.3,0.2,90.3,41.5,90.3,90.8
			C881.3,630.3,840.2,671.2,790.3,671.2z"/>
	</g>
</g>
</svg>
